<svg xmlns="http://www.w3.org/2000/svg" version="1.1" xmlns:xlink="http://www.w3.org/1999/xlink" xmlns:svgjs="http://svgjs.com/svgjs" width="80" height="80"><svg xmlns="http://www.w3.org/2000/svg" data-name="Cards" viewBox="0 0 80 80" x="0px" y="0px"><path d="M25.105,41.789a2,2,0,0,0,2.684-.894l2-4a2,2,0,1,0-3.578-1.79l-2,4A2,2,0,0,0,25.105,41.789Z"></path><path d="M31.105,41.789a2,2,0,0,0,2.684-.894l2-4a2,2,0,1,0-3.578-1.79l-2,4A2,2,0,0,0,31.105,41.789Z"></path><path d="M13.105,41.789a2,2,0,0,0,2.684-.894l2-4a2,2,0,1,0-3.578-1.79l-2,4A2,2,0,0,0,13.105,41.789Z"></path><path d="M19.105,41.789a2,2,0,0,0,2.684-.894l2-4a2,2,0,1,0-3.578-1.79l-2,4A2,2,0,0,0,19.105,41.789Z"></path><path d="M74.188,34.043,56.418,16.085A10.4,10.4,0,0,0,49.025,13H13A10,10,0,0,0,3,23V39A9.4,9.4,0,0,0,5.779,45.67L24.355,64.1A9.94,9.94,0,0,0,31.4,67H67A10,10,0,0,0,77,57V41A9.968,9.968,0,0,0,74.188,34.043ZM7,39V24H51a2,2,0,0,0,0-4H7.812A6,6,0,0,1,13,17H49a6.006,6.006,0,0,1,6,6v5H11a2,2,0,0,0,0,4H55v7a6.006,6.006,0,0,1-6,6H13A6.006,6.006,0,0,1,7,39Zm8.172,10.262A2.027,2.027,0,0,0,14.844,49H49A10.011,10.011,0,0,0,59,39V24.382l.012.012a1.96,1.96,0,0,0,.312.442A5.968,5.968,0,0,1,61,29V45a6.006,6.006,0,0,1-6,6H19.4A5.959,5.959,0,0,1,15.172,49.262Zm6,6a1.906,1.906,0,0,0-.26-.211L20.861,55H55A10.011,10.011,0,0,0,65,45V30.445l.083.085a2.051,2.051,0,0,0,.241.306A5.968,5.968,0,0,1,67,34.995V51a6.006,6.006,0,0,1-6,6H25.4A5.959,5.959,0,0,1,21.172,55.262ZM73,57a6.006,6.006,0,0,1-6,6H31.4a5.959,5.959,0,0,1-4.223-1.738L26.908,61H61A10.011,10.011,0,0,0,71,51V36.509l.324.327A5.968,5.968,0,0,1,73,41Z"></path></svg><style>@media (prefers-color-scheme: light) { :root { filter: none; } }
@media (prefers-color-scheme: dark) { :root { filter: invert(100%); } }
</style></svg>